<svg width="33" height="32" viewBox="0 0 33 32" fill="none" xmlns="http://www.w3.org/2000/svg">
<path fill-rule="evenodd" clip-rule="evenodd" d="M16.5874 10.0314C18.4308 12.0001 21.3431 12.0001 21.3431 12.0001C25.6669 12.0001 28.0726 10.1571 28.9504 7.55817V12.0001H32.5874V6.10352e-05L22.2303 6.10352e-05V3.59364H26.8402C26.8402 6.37817 24.1475 8.31437 22.0703 8.31437C21.878 8.31437 20.3337 8.50548 19.0699 6.9856L16.5874 10.0314Z" fill="#31727D"/>
<path d="M9.89342 9.70368C8.06508 7.85239 10.9866 3.64065 13.9086 5.58315L17.0784 1.67907C10.3428 -3.95013 0.35697 5.75762 5.42846 13.349C-4.29614 20.5067 1.41381 34.6032 15.572 31.5661V25.9284C15.572 25.9284 12.3115 27.0643 9.65508 26.3612C3.1002 24.6263 6.189 17.0358 8.94004 17.0358L23.6519 32H32.5874L25.2313 24.4509L28.19 21.4146L24.8088 17.9446L21.3048 21.4146C21.3048 21.4146 11.7218 11.555 9.89342 9.70368Z" fill="#31727D"/>
</svg>
