<svg width="2057" height="1100" viewBox="0 0 2057 1100" fill="none" xmlns="http://www.w3.org/2000/svg">
<path d="M313.491 1096.94V1064.78H252.516C245.883 1064.78 225.475 1065.03 212.973 1065.54V1065.29C218.586 1058.91 228.791 1047.42 236.955 1037.72L311.193 948.138V918.276H173.43V950.436H230.577C242.822 950.436 255.322 950.181 266.804 949.67V949.925C258.128 959.625 247.414 971.619 240.27 980.041L167.562 1067.33V1096.94H313.491ZM437.026 984.126C426.312 972.641 410.495 966.26 390.339 966.26C370.441 966.26 355.135 972.13 343.909 983.105C331.407 995.102 325.795 1012.46 325.795 1032.87C325.795 1054.31 331.918 1071.16 344.164 1083.15C354.878 1093.62 370.695 1100 390.596 1100C423.506 1100 444.936 1085.71 452.334 1057.12L417.637 1054.06C415.087 1067.33 406.923 1074.73 390.596 1074.73C371.461 1074.73 361.256 1063.76 361.002 1042.32H454.375C454.884 1017.3 449.272 997.398 437.026 984.126ZM390.339 991.017C399.524 991.017 405.902 993.315 410.749 998.418C415.341 1003.27 417.382 1009.9 418.148 1017.82H361.256C362.022 1010.92 364.062 1005.05 367.635 1000.46C372.481 994.079 379.88 991.017 390.339 991.017ZM511.897 952.478V915.725H476.181V952.478H511.897ZM511.897 1096.94V969.323H476.181V1096.94H511.897ZM591.483 1098.21C598.116 1098.21 605.003 1097.7 610.361 1096.43L609.85 1066.05C605.769 1066.82 601.431 1067.33 598.116 1067.33C589.44 1067.33 584.848 1065.29 584.848 1058.14V997.398H610.87V969.323H584.848V933.846H549.643V969.323H531.274V997.398H549.643V1062.22C549.643 1088.77 566.99 1098.21 591.483 1098.21ZM730.388 1096.94V997.398H756.41V969.323H730.388V955.03C730.388 946.608 734.469 945.076 743.145 945.076C745.951 945.076 751.307 945.587 755.39 946.351L755.899 918.533C752.838 917.767 744.928 917.001 738.296 917.001C710.489 917.001 694.672 927.21 694.672 955.03V969.323H676.303V997.398H694.672V1096.94H730.388ZM792.257 919.042V952.478H824.912V919.042H792.257ZM841.495 919.042V952.478H874.151V919.042H841.495ZM856.547 1038.74C856.547 1064.27 845.322 1072.95 833.076 1072.95C825.932 1072.95 820.32 1072.18 815.473 1066.82C810.372 1060.95 809.86 1053.04 809.86 1041.3V969.323H773.379V1043.08C773.379 1060.18 774.91 1075.5 784.858 1085.96C794.043 1095.66 805.013 1100 821.085 1100C837.923 1100 850.425 1092.6 857.058 1079.07V1096.94H891.754V969.323H856.547V1038.74ZM991.573 966.515C970.909 968.047 959.938 978.766 955.6 993.058V969.323H920.393V1096.94H956.112V1040.02C956.112 1009.14 969.377 997.909 993.359 997.909C995.654 997.909 997.949 998.164 999.992 998.418L1000.76 966.26C998.46 966.26 993.614 966.26 991.573 966.515ZM1102.2 1096.94V1014.75C1102.2 1009.65 1101.69 984.892 1100.66 965.24H1101.18C1106.79 981.064 1117.25 1000.21 1123.37 1011.69L1167.76 1096.94H1212.15V918.276H1175.92V999.694C1175.92 1010.16 1176.44 1034.15 1177.46 1051.25H1176.95C1170.82 1034.92 1159.85 1014.75 1152.71 1000.72L1110.36 918.276H1065.97V1096.94H1102.2ZM1347.13 984.126C1336.41 972.641 1320.6 966.26 1300.44 966.26C1280.54 966.26 1265.24 972.13 1254.01 983.105C1241.51 995.102 1235.9 1012.46 1235.9 1032.87C1235.9 1054.31 1242.02 1071.16 1254.27 1083.15C1264.98 1093.62 1280.8 1100 1300.7 1100C1333.61 1100 1355.04 1085.71 1362.44 1057.12L1327.74 1054.06C1325.19 1067.33 1317.02 1074.73 1300.7 1074.73C1281.56 1074.73 1271.36 1063.76 1271.1 1042.32H1364.48C1364.99 1017.3 1359.37 997.398 1347.13 984.126ZM1300.44 991.017C1309.63 991.017 1316 993.315 1320.85 998.418C1325.44 1003.27 1327.48 1009.9 1328.25 1017.82H1271.36C1272.12 1010.92 1274.16 1005.05 1277.74 1000.46C1282.58 994.079 1289.98 991.017 1300.44 991.017ZM1468.43 1038.74C1468.43 1064.27 1457.21 1072.95 1444.96 1072.95C1437.82 1072.95 1432.2 1072.18 1427.36 1066.82C1422.25 1060.95 1421.74 1053.04 1421.74 1041.3V969.323H1385.26V1043.08C1385.26 1060.18 1386.79 1075.5 1396.74 1085.96C1405.93 1095.66 1416.9 1100 1432.97 1100C1449.81 1100 1462.31 1092.6 1468.94 1079.07V1096.94H1503.64V969.323H1468.43V1038.74ZM1636.88 984.126C1626.16 972.641 1610.34 966.26 1590.19 966.26C1570.29 966.26 1554.98 972.13 1543.76 983.105C1531.26 995.102 1525.65 1012.46 1525.65 1032.87C1525.65 1054.31 1531.77 1071.16 1544.01 1083.15C1554.73 1093.62 1570.55 1100 1590.44 1100C1623.35 1100 1644.78 1085.71 1652.18 1057.12L1617.49 1054.06C1614.94 1067.33 1606.77 1074.73 1590.44 1074.73C1571.31 1074.73 1561.11 1063.76 1560.85 1042.32H1654.22C1654.73 1017.3 1649.12 997.398 1636.88 984.126ZM1590.19 991.017C1599.37 991.017 1605.75 993.315 1610.6 998.418C1615.19 1003.27 1617.23 1009.9 1618 1017.82H1561.11C1561.87 1010.92 1563.91 1005.05 1567.49 1000.46C1572.33 994.079 1579.73 991.017 1590.19 991.017ZM1725.78 1100C1755.63 1100 1782.67 1090.3 1782.67 1059.67C1782.67 1029.3 1754.35 1023.18 1731.65 1018.07C1714.55 1014.24 1705.37 1011.18 1705.37 1002.5C1705.37 993.569 1714.04 989.741 1724.5 989.741C1737.26 989.741 1745.68 996.122 1746.44 1010.41L1779.35 1004.8C1776.04 975.704 1752.06 966.26 1723.99 966.26C1696.44 966.26 1671.69 977.234 1671.69 1005.31C1671.69 1031.6 1694.14 1039.26 1718.64 1045.13C1738.79 1049.97 1748.48 1053.04 1748.48 1061.46C1748.48 1070.9 1741.09 1076.26 1726.55 1076.26C1712.26 1076.26 1702.05 1069.37 1701.54 1054.06L1667.61 1058.4C1670.16 1087.75 1695.42 1100 1725.78 1100ZM1840.57 1096.94V1056.61H1802.05V1096.94H1840.57Z" fill="#31727D"/>
<path d="M1706.96 448.206H1910.83C1898.9 548.582 1830.28 601.252 1733.82 601.252C1658.23 601.252 1609.51 580.383 1577.68 535.661C1549.84 496.904 1537.9 442.243 1537.9 359.759C1537.9 278.265 1554.81 219.632 1581.66 182.86C1614.48 137.145 1666.19 118.263 1733.82 118.263C1829.29 118.263 1875.03 173.916 1893.93 252.427L2049.06 222.613C2012.27 79.5046 1895.91 0 1733.82 0C1510.06 0 1381.77 148.077 1381.77 359.759C1381.77 591.315 1506.08 719.516 1709.95 719.516C1801.44 719.516 1880 681.751 1919.78 619.142L1927.74 715.768H2056.03V324.974H1706.96V448.206Z" fill="#31727D"/>
<path fill-rule="evenodd" clip-rule="evenodd" d="M977.218 225.554C1018.65 269.819 1084.1 269.819 1084.1 269.819C1181.28 269.819 1235.35 228.381 1255.08 169.944V269.819H1336.82V0.000488281H1104.04V80.8017H1207.65C1207.65 143.411 1147.13 186.947 1100.45 186.947C1096.12 186.947 1061.42 191.244 1033.01 157.07L977.218 225.554Z" fill="#31727D"/>
<path d="M826.77 218.187C785.676 176.56 851.339 81.8597 917.011 125.537L988.254 37.7536C836.871 -88.8181 612.437 129.46 726.418 300.151C507.856 461.09 636.188 778.049 954.395 709.761V582.997C954.395 582.997 881.116 608.539 821.412 592.73C674.09 553.718 743.512 383.048 805.342 383.048L1135.99 719.516H1336.82L1171.49 549.775L1237.99 481.505L1162 403.482L1083.24 481.505C1083.24 481.505 867.862 259.812 826.77 218.187Z" fill="#31727D"/>
<path d="M557.717 552.758C557.717 474.64 529.623 422.218 459.908 396.52C528.583 366.712 575.405 307.095 575.405 217.669C575.405 33.6791 440.137 0.786865 283.02 0.786865H0V720.303H157.118V447.915H277.818C360.019 447.915 401.639 479.779 401.639 559.954C401.639 650.407 407.882 682.272 429.732 720.303H598.297L599.337 717.219C567.082 670.965 557.717 624.711 557.717 552.758ZM157.118 326.626V122.077H270.535C355.857 122.077 420.369 132.356 420.369 223.836C420.369 313.263 355.857 326.626 269.493 326.626H157.118Z" fill="#31727D"/>
</svg>
